<?xml version="1.0" encoding="iso-8859-1"?>
<!-- Generator: Adobe Illustrator 16.0.0, SVG Export Plug-In . SVG Version: 6.00 Build 0)  -->
<!DOCTYPE svg PUBLIC "-//W3C//DTD SVG 1.1//EN" "http://www.w3.org/Graphics/SVG/1.1/DTD/svg11.dtd">
<svg version="1.1" id="Layer_1" xmlns="http://www.w3.org/2000/svg" xmlns:xlink="http://www.w3.org/1999/xlink" x="0px" y="0px"
	 width="240px" height="108px" viewBox="0 0 240 108" style="enable-background:new 0 0 240 108;" xml:space="preserve">
<path style="fill-rule:evenodd;clip-rule:evenodd;fill:#394A52;" d="M111.256,55.741c-1.636,1.954-3.803,2.932-6.501,2.932
	c-2.295,0-4.159-0.707-5.593-2.119c-1.434-1.413-2.151-3.278-2.151-5.594c0-2.337,0.69-4.207,2.071-5.609
	c1.381-1.402,3.219-2.104,5.514-2.104c2.464,0,4.472,0.86,6.023,2.582l2.549-2.422c-0.786-1.147-1.955-2.077-3.505-2.789
	c-1.551-0.712-3.304-1.067-5.259-1.067c-3.399,0-6.151,1.089-8.254,3.267s-3.155,4.892-3.155,8.143c0,3.463,1.036,6.23,3.107,8.302
	c2.071,2.072,4.86,3.107,8.366,3.107c1.913,0,3.671-0.366,5.275-1.099c1.604-0.733,2.863-1.748,3.776-3.044L111.256,55.741z"/>
<polygon style="fill-rule:evenodd;clip-rule:evenodd;fill:#394A52;" points="127.255,62.114 143.764,62.114 143.764,58.481 
	131.111,58.481 131.111,39.806 127.255,39.806 "/>
<path style="fill-rule:evenodd;clip-rule:evenodd;fill:#394A52;" d="M155.077,62.114h3.983l2.136-4.939h10.167l2.167,4.939h4.048
	l-9.784-22.309h-2.933L155.077,62.114L155.077,62.114z M166.264,45.383l3.665,8.478h-7.33L166.264,45.383z"/>
<rect x="190.804" y="39.806" style="fill-rule:evenodd;clip-rule:evenodd;fill:#394A52;" width="3.856" height="22.309"/>
<polygon style="fill-rule:evenodd;clip-rule:evenodd;fill:#394A52;" points="210.148,62.114 214.005,62.114 214.005,46.626 
	220.953,55.518 221.94,55.518 228.729,46.658 228.729,62.114 232.586,62.114 232.586,39.806 229.207,39.806 221.526,50.163 
	213.559,39.806 210.148,39.806 "/>
<polygon style="fill-rule:evenodd;clip-rule:evenodd;fill:#394A52;" points="94.173,94.959 98.03,94.959 98.03,79.47 
	104.978,88.361 105.966,88.361 112.754,79.502 112.754,94.959 116.61,94.959 116.61,72.649 113.232,72.649 105.551,83.007 
	97.583,72.649 94.173,72.649 "/>
<path style="fill-rule:evenodd;clip-rule:evenodd;fill:#394A52;" d="M123.488,83.804c0,3.272,1.104,5.992,3.314,8.159
	c2.209,2.167,4.907,3.251,8.095,3.251s5.886-1.089,8.095-3.267c2.21-2.179,3.314-4.893,3.314-8.144c0-3.271-1.099-5.991-3.298-8.158
	s-4.903-3.251-8.111-3.251s-5.912,1.1-8.111,3.299C124.588,77.893,123.488,80.596,123.488,83.804L123.488,83.804z M127.504,83.804
	c0-2.273,0.722-4.127,2.167-5.561c1.444-1.435,3.187-2.151,5.227-2.151c2.019,0,3.756,0.722,5.211,2.167
	c1.455,1.444,2.184,3.293,2.184,5.545c0,2.273-0.707,4.128-2.12,5.562c-1.413,1.435-3.171,2.151-5.274,2.151
	c-2.04,0-3.782-0.723-5.227-2.167C128.226,87.904,127.504,86.057,127.504,83.804z"/>
<path style="fill-rule:evenodd;clip-rule:evenodd;fill:#394A52;" d="M166.124,88.903c0,0.85-0.372,1.514-1.115,1.992
	c-0.743,0.478-1.785,0.717-3.123,0.717c-3.229,0-5.854-1.063-7.872-3.187l-2.295,2.708c0.978,1.169,2.369,2.141,4.175,2.917
	c1.807,0.775,3.687,1.163,5.642,1.163c2.4,0,4.43-0.616,6.087-1.849s2.485-2.815,2.485-4.749c0-1.274-0.339-2.363-1.02-3.267
	c-0.68-0.902-1.529-1.562-2.549-1.976c-1.021-0.414-2.125-0.797-3.315-1.147c-1.189-0.351-2.294-0.638-3.314-0.86
	c-1.02-0.224-1.869-0.563-2.549-1.021c-0.681-0.456-1.021-1.035-1.021-1.736c0-0.871,0.446-1.524,1.339-1.96
	s1.997-0.653,3.314-0.653c2.55,0,4.759,0.775,6.629,2.326l2.104-2.74c-2.082-2.125-4.961-3.188-8.637-3.188
	c-2.528,0-4.616,0.611-6.263,1.833c-1.646,1.221-2.47,2.714-2.47,4.478c0,1.104,0.255,2.056,0.765,2.853s1.169,1.418,1.976,1.864
	c0.808,0.446,1.7,0.823,2.678,1.131c0.978,0.309,1.954,0.574,2.932,0.797c0.978,0.224,1.87,0.468,2.677,0.733
	c0.808,0.266,1.467,0.632,1.977,1.1C165.869,87.649,166.124,88.224,166.124,88.903z"/>
<path style="fill-rule:evenodd;clip-rule:evenodd;fill:#394A52;" d="M174.628,94.959h3.983l2.135-4.94h10.167l2.167,4.94h4.048
	l-9.784-22.31h-2.933L174.628,94.959L174.628,94.959z M185.813,78.227l3.665,8.478h-7.33L185.813,78.227z"/>
<rect x="202.922" y="72.649" style="fill-rule:evenodd;clip-rule:evenodd;fill:#394A52;" width="3.856" height="22.31"/>
<path style="fill-rule:evenodd;clip-rule:evenodd;fill:#394A52;" d="M231.917,88.585c-1.636,1.954-3.803,2.932-6.501,2.932
	c-2.295,0-4.159-0.706-5.593-2.119c-1.435-1.413-2.151-3.277-2.151-5.594c0-2.337,0.69-4.207,2.071-5.609
	c1.381-1.401,3.219-2.103,5.514-2.103c2.465,0,4.472,0.86,6.023,2.581l2.55-2.422c-0.786-1.147-1.955-2.077-3.506-2.789
	c-1.552-0.712-3.305-1.067-5.259-1.067c-3.399,0-6.151,1.089-8.255,3.267s-3.155,4.893-3.155,8.143c0,3.464,1.036,6.23,3.107,8.303
	c2.072,2.071,4.86,3.107,8.366,3.107c1.912,0,3.671-0.367,5.274-1.1c1.604-0.733,2.863-1.748,3.777-3.044L231.917,88.585z"/>
<polygon style="fill-rule:evenodd;clip-rule:evenodd;fill:#008E30;" points="86.217,22.883 112.636,14.739 88.062,16.53 "/>
<polygon style="fill-rule:evenodd;clip-rule:evenodd;fill:#D5E007;" points="86.217,22.883 88.062,16.53 72.501,13.73 "/>
<polygon style="fill-rule:evenodd;clip-rule:evenodd;fill:#55AB26;" points="72.501,13.73 86.217,22.883 82.518,35.591 "/>
<polygon style="fill-rule:evenodd;clip-rule:evenodd;fill:#00ABE5;" points="57.943,27.843 72.501,13.73 82.518,35.591 "/>
<polygon style="fill-rule:evenodd;clip-rule:evenodd;fill:#FCAA05;" points="68.555,54.991 57.943,27.843 43.723,18.856 "/>
<polygon style="fill-rule:evenodd;clip-rule:evenodd;fill:#2C41AB;" points="68.555,54.991 57.943,27.843 82.518,35.591 "/>
<polygon style="fill-rule:evenodd;clip-rule:evenodd;fill:#DA0000;" points="43.723,18.856 43.933,52.755 31.874,30.712 "/>
<polygon style="fill-rule:evenodd;clip-rule:evenodd;fill:#FECC00;" points="31.874,30.712 43.723,18.856 2.286,10.964 "/>
<polygon style="fill-rule:evenodd;clip-rule:evenodd;fill:#F03118;" points="43.928,18.302 28.294,15.38 21.398,2.792 
	62.038,23.241 57.859,27.288 "/>
<polygon style="fill-rule:evenodd;clip-rule:evenodd;fill:#F03118;" points="68.555,54.991 43.723,18.856 43.933,52.755 "/>
<polygon style="fill-rule:evenodd;clip-rule:evenodd;fill:#F0357D;" points="47.229,71.524 43.932,52.755 68.555,54.992 "/>
<polygon style="fill-rule:evenodd;clip-rule:evenodd;fill:#781777;" points="47.229,71.524 43.932,52.755 33.976,81.604 "/>
<polygon style="fill-rule:evenodd;clip-rule:evenodd;fill:#5B0D5B;" points="47.229,71.524 34.086,81.288 33.325,107.461 "/>
<polygon style="fill-rule:evenodd;clip-rule:evenodd;fill:#5B0D5B;" points="30.682,100.171 32.513,84.011 20.21,107.647 "/>
</svg>
