<?xml version="1.0" standalone="no"?>
<!DOCTYPE svg PUBLIC "-//W3C//DTD SVG 20010904//EN"
 "http://www.w3.org/TR/2001/REC-SVG-20010904/DTD/svg10.dtd">
<svg version="1.0" xmlns="http://www.w3.org/2000/svg"
 width="960.000000pt" height="960.000000pt" viewBox="0 0 960.000000 960.000000"
 preserveAspectRatio="xMidYMid meet">
<metadata>
Created by potrace 1.14, written by Peter Selinger 2001-2017
</metadata>
<g transform="translate(0.000000,960.000000) scale(0.100000,-0.100000)"
fill="#000000" stroke="none">
<path d="M2190 8585 c0 -8 5 -15 11 -15 5 0 8 -4 4 -9 -3 -5 1 -15 8 -23 7 -7
20 -28 28 -45 7 -18 18 -33 22 -33 5 0 6 -4 2 -9 -3 -5 2 -16 10 -24 8 -9 15
-18 15 -22 0 -3 32 -63 70 -131 39 -69 70 -129 70 -132 0 -4 9 -18 20 -32 11
-14 20 -32 20 -42 0 -9 4 -18 8 -20 5 -1 27 -37 49 -78 50 -92 111 -205 133
-244 8 -16 22 -30 30 -32 8 -1 26 -4 40 -7 49 -10 205 -39 225 -42 11 -2 34
-6 50 -10 50 -10 129 -24 155 -29 14 -2 36 -7 50 -10 14 -3 39 -8 55 -10 17
-3 42 -7 58 -10 79 -17 84 -17 167 -32 19 -4 48 -8 65 -10 16 -2 37 -7 47 -10
19 -6 29 -8 128 -24 60 -10 89 -22 145 -58 39 -24 73 -49 76 -54 3 -5 8 -8 11
-6 2 1 60 -34 129 -78 263 -173 360 -234 369 -234 6 0 10 -4 10 -8 0 -4 15
-16 33 -27 17 -10 93 -58 168 -107 75 -48 140 -88 145 -88 13 0 294 273 294
285 0 6 -82 51 -183 101 -100 49 -321 160 -492 246 -170 86 -314 156 -319 156
-5 0 -12 4 -15 9 -3 4 -229 120 -501 257 -272 136 -549 275 -615 309 -66 33
-126 62 -133 63 -7 1 -19 7 -26 14 -12 9 -193 102 -206 105 -3 0 -16 7 -30 15
-35 19 -393 200 -397 200 -2 0 -3 -7 -3 -15z"/>
<path d="M815 8003 c21 -20 346 -233 355 -233 6 0 10 -5 10 -10 0 -6 8 -14 18
-18 9 -4 90 -56 180 -117 89 -60 175 -117 189 -125 15 -8 32 -19 39 -25 6 -5
308 -208 671 -450 587 -391 663 -444 682 -480 35 -68 151 -281 169 -310 4 -5
7 -12 7 -15 0 -3 12 -25 27 -50 62 -108 148 -269 148 -279 0 -6 4 -11 8 -11 4
0 15 -15 23 -32 33 -70 103 -193 113 -200 6 -4 7 -8 2 -8 -5 0 -4 -6 1 -12 6
-7 32 -53 59 -103 26 -49 61 -112 76 -140 16 -27 36 -66 46 -85 9 -19 20 -37
23 -40 3 -3 16 -25 28 -50 35 -68 63 -120 93 -171 28 -47 29 -56 10 -102 -7
-16 -12 -35 -12 -43 0 -8 -4 -14 -8 -14 -4 0 -9 -10 -9 -22 -1 -13 -6 -32 -11
-43 -11 -23 -45 -115 -48 -130 -4 -17 -120 -351 -126 -361 -3 -5 -9 -25 -13
-44 -4 -19 -11 -41 -16 -50 -5 -8 -20 -49 -33 -90 -14 -41 -39 -115 -56 -165
-18 -49 -52 -148 -76 -220 -25 -71 -48 -137 -51 -145 -3 -8 -7 -19 -8 -25 -2
-5 -17 -50 -35 -100 -28 -80 -83 -244 -97 -285 -2 -8 -4 -16 -3 -18 0 -1 -6
-15 -14 -31 -8 -15 -17 -39 -20 -52 -3 -13 -18 -60 -34 -104 -30 -85 -32 -113
-36 -472 0 -68 -4 -123 -8 -123 -4 0 -3 -11 2 -24 5 -13 6 -26 3 -29 -3 -3 -7
-68 -9 -144 -9 -334 -13 -511 -19 -688 -10 -322 -13 -477 -10 -473 1 2 15 35
30 73 15 39 35 89 46 112 10 24 19 46 19 51 0 4 15 45 34 90 19 45 32 82 29
82 -3 0 -1 6 4 13 5 6 20 41 33 77 13 36 27 70 31 76 5 6 10 19 12 30 2 10 10
33 17 49 6 17 29 75 50 130 21 55 44 114 51 130 7 17 13 32 14 35 1 7 75 199
90 235 17 41 40 99 41 105 0 3 5 16 11 30 18 43 85 214 87 225 2 6 7 19 11 30
4 11 25 63 45 115 20 52 41 104 45 115 5 11 9 22 10 25 1 3 7 19 14 35 7 17
14 37 16 45 4 13 41 110 65 165 4 11 26 67 48 125 84 217 114 296 134 345 16
41 33 60 96 107 43 31 88 66 102 77 14 11 63 49 110 86 47 36 92 71 100 78 9
7 45 34 80 62 36 27 67 53 68 57 2 5 10 8 17 8 7 0 15 4 17 8 2 6 199 161 358
282 18 14 38 30 44 35 6 6 49 39 96 75 47 35 87 68 88 72 2 4 8 8 13 8 6 0 21
10 34 23 13 12 54 45 92 72 37 28 73 55 78 61 6 6 36 30 67 53 73 52 123 103
171 172 81 116 152 215 164 227 7 7 13 17 13 21 0 4 8 16 18 27 9 11 33 42 52
69 19 28 38 55 43 60 11 13 189 263 202 282 6 9 17 24 25 33 14 17 134 184
155 218 6 8 15 23 22 31 25 33 89 120 103 141 8 12 45 64 82 115 37 51 69 101
71 111 1 11 5 24 8 29 6 9 13 36 24 85 2 8 20 69 40 135 19 66 37 129 40 140
2 11 4 21 6 23 1 1 2 5 3 10 4 14 29 98 42 143 8 25 17 54 19 65 2 10 21 75
42 144 l37 126 85 23 c47 13 91 26 96 30 6 3 15 6 21 7 5 1 64 18 130 39 65
21 124 38 129 40 6 1 17 5 25 8 12 5 66 20 110 32 3 1 43 14 90 29 47 15 90
29 95 30 44 11 72 20 80 25 6 3 15 6 20 7 13 2 156 44 175 51 8 4 17 7 20 8 3
0 38 11 78 24 40 13 78 24 85 25 7 1 17 5 23 8 6 4 21 9 35 12 13 2 53 14 89
26 36 12 70 23 75 24 6 2 30 9 55 16 25 8 47 14 50 15 3 1 46 14 95 29 50 16
119 37 155 48 36 11 70 21 75 23 13 5 -204 -8 -345 -20 -36 -3 -103 -7 -150
-10 -47 -2 -85 -5 -85 -6 0 -1 -20 -2 -45 -4 -123 -7 -235 -17 -242 -21 -4 -3
-8 0 -8 6 0 6 -4 8 -10 5 -16 -10 -40 -13 -146 -20 -54 -3 -121 -8 -149 -10
-27 -2 -93 -7 -145 -10 -52 -4 -113 -8 -135 -10 -305 -23 -309 -23 -370 -9
-27 7 -70 15 -95 18 -25 3 -56 8 -70 11 -14 3 -38 8 -55 10 -16 3 -41 7 -55
10 -23 5 -93 18 -165 31 -16 3 -46 7 -65 9 -19 2 -37 5 -40 6 -3 1 -9 3 -15 4
-5 1 -23 4 -40 8 -16 4 -43 9 -60 12 -16 3 -41 7 -55 10 -14 3 -36 7 -50 10
-56 10 -207 36 -240 41 -19 3 -38 8 -41 10 -3 2 -55 -44 -115 -102 -115 -111
-526 -510 -674 -654 -49 -47 -130 -126 -182 -176 l-93 -91 -56 37 c-30 20 -61
39 -69 43 -8 4 -42 25 -75 47 -33 22 -68 43 -77 46 -10 4 -18 10 -18 15 0 5
-4 9 -10 9 -5 0 -54 28 -107 63 -54 35 -119 77 -145 93 -155 96 -254 159 -258
164 -3 4 -20 15 -39 25 -19 9 -55 32 -80 50 -59 41 -114 67 -149 70 -15 1 -34
5 -42 8 -8 3 -58 13 -110 22 -52 9 -102 18 -110 20 -85 16 -193 36 -225 41
-22 3 -43 8 -46 10 -3 2 -21 6 -40 9 -19 3 -56 10 -84 15 -27 5 -62 12 -77 15
-16 3 -40 7 -55 10 -16 3 -53 11 -83 17 -30 7 -63 12 -72 11 -10 0 -18 3 -18
7 0 3 -10 6 -22 5 -13 -1 -36 2 -53 6 -16 5 -46 11 -65 14 -45 7 -138 25 -170
33 -14 3 -32 7 -40 8 -8 1 -31 5 -50 9 -19 4 -44 8 -55 10 -22 3 -89 15 -120
22 -11 2 -29 6 -40 7 -11 2 -20 4 -20 6 0 1 -11 3 -25 4 -14 2 -37 6 -51 9
-14 4 -44 9 -65 12 -21 4 -46 8 -54 10 -14 4 -241 48 -315 61 -16 3 -61 11
-100 19 -38 7 -88 17 -110 21 -22 4 -47 8 -55 10 -19 4 -80 16 -100 21 -8 1
-30 5 -49 8 -18 2 -41 7 -50 9 -9 3 -29 8 -46 10 -16 3 -55 10 -85 16 -30 6
-68 13 -85 15 -16 3 -41 7 -55 11 -55 12 -95 16 -85 7z"/>
<path d="M2929 2623 c-24 -49 -48 -91 -54 -95 -5 -4 -6 -8 -1 -8 5 0 4 -6 -1
-12 -10 -13 -107 -197 -174 -328 -18 -36 -37 -68 -43 -72 -6 -4 -7 -8 -2 -8 5
0 4 -6 -1 -12 -6 -7 -50 -89 -98 -183 -48 -93 -114 -219 -145 -280 -152 -291
-206 -396 -238 -460 -20 -38 -38 -72 -42 -75 -9 -8 -31 -62 -27 -67 3 -2 11 2
18 10 8 7 49 38 93 68 115 79 121 83 124 92 2 4 10 7 17 7 8 0 18 6 22 13 4 6
42 35 83 62 41 28 80 55 85 61 6 5 30 23 55 39 25 17 47 32 50 35 3 3 49 37
103 74 53 38 98 76 98 85 1 9 3 25 5 36 1 11 5 52 9 90 3 39 8 81 10 95 3 14
7 50 10 80 3 30 7 69 10 85 2 17 7 57 10 90 3 33 8 75 11 92 2 18 7 54 9 80 3
27 7 66 10 88 2 22 7 63 10 90 10 93 13 114 20 125 3 5 1 10 -5 10 -6 0 -9 4
-6 9 9 14 29 171 22 171 -2 0 -23 -39 -47 -87z"/>
</g>
</svg>
