<?xml version="1.0" encoding="iso-8859-1"?>
<!-- Generator: Adobe Illustrator 16.0.0, SVG Export Plug-In . SVG Version: 6.00 Build 0)  -->
<!DOCTYPE svg PUBLIC "-//W3C//DTD SVG 1.1//EN" "http://www.w3.org/Graphics/SVG/1.1/DTD/svg11.dtd">
<svg version="1.1" id="_x23_Layer_1" xmlns="http://www.w3.org/2000/svg" xmlns:xlink="http://www.w3.org/1999/xlink" x="0px"
	 y="0px" width="240px" height="192px" viewBox="0 0 240 192" style="enable-background:new 0 0 240 192;" xml:space="preserve">
<polygon style="fill-rule:evenodd;clip-rule:evenodd;fill:#079131;" points="171.822,37.182 219.674,22.429 175.164,25.673 "/>
<polygon style="fill-rule:evenodd;clip-rule:evenodd;fill:#D5D900;" points="171.822,37.182 175.164,25.673 146.979,20.603 "/>
<polygon style="fill-rule:evenodd;clip-rule:evenodd;fill:#5CB02E;" points="146.979,20.603 171.822,37.182 165.121,60.199 "/>
<polygon style="fill-rule:evenodd;clip-rule:evenodd;fill:#00A9E3;" points="120.611,46.166 146.979,20.603 165.121,60.199 "/>
<polygon style="fill-rule:evenodd;clip-rule:evenodd;fill:#F7A800;" points="139.832,95.337 120.611,46.166 94.855,29.888 "/>
<polygon style="fill-rule:evenodd;clip-rule:evenodd;fill:#2C338B;" points="139.832,95.337 120.611,46.166 165.121,60.199 "/>
<polygon style="fill-rule:evenodd;clip-rule:evenodd;fill:#E3270E;" points="94.855,29.888 95.234,91.287 73.392,51.361 "/>
<polygon style="fill-rule:evenodd;clip-rule:evenodd;fill:#FFCC00;" points="73.392,51.361 94.855,29.888 19.8,15.592 "/>
<polygon style="fill-rule:evenodd;clip-rule:evenodd;fill:#E6370D;" points="95.226,28.883 66.908,23.59 54.418,0.789 
	128.027,37.83 120.459,45.159 "/>
<polygon style="fill-rule:evenodd;clip-rule:evenodd;fill:#E6370D;" points="139.832,95.337 94.855,29.888 95.234,91.287 "/>
<polygon style="fill-rule:evenodd;clip-rule:evenodd;fill:#E72876;" points="101.204,125.283 95.232,91.288 139.832,95.339 "/>
<polygon style="fill-rule:evenodd;clip-rule:evenodd;fill:#7B1C79;" points="101.204,125.283 95.232,91.288 77.201,143.54 "/>
<polygon style="fill-rule:evenodd;clip-rule:evenodd;fill:#5D135D;" points="101.204,125.283 77.399,142.968 76.021,190.375 "/>
<polygon style="fill-rule:evenodd;clip-rule:evenodd;fill:#5D135D;" points="71.233,177.17 74.55,147.899 52.267,190.712 "/>
</svg>
